# xmcd
#
# Track frame offsets:
#	150
#	9882
#	24912
#	35076
#	49871
#	72785
#	86493
#	104043
#	123236
#	141278
#	155077
#	170252
#	181164
#	190342
#	213721
#	226921
#	236423
#	252069
#
# Disc length: 3551 seconds
#
# Revision: 0
# Processed by: cddbd v1.5.2PL0 Copyright (c) Steve Scherf et al.
# Submitted via: dBpowerAMP V4.0
#
DISCID=ee0ddd12
DTITLE=XMAS - Country Classic Christmas
DYEAR=1900
DGENRE=Country
TTITLE0=Willie Nelson - We Wish You a Merry Christmas
TTITLE1=Louise MAndrell - Silent Night
TTITLE2=Merle Haggard - Santa Claus and Popcorn
TTITLE3=Charley Pride - Joy to the World
TTITLE4=Lee Greenwood - The Twelve Days of Christmas
TTITLE5=Waylon Jennings - Away In a Manger
TTITLE6=Glen Campbell - Carol Medley
TTITLE7=Mickey Gilley - O Little Town of Bethelem
TTITLE8=Bill Anderson - It Came Upon A Midnight Clear
TTITLE9=B.J. Thomas - The First Noel
TTITLE10=Brenda Lee - O Come All Ye Faithful
TTITLE11=Porter Wagoner - Jingle Bells
TTITLE12=Tom T. Hall - Jolly Old St. Nicholas
TTITLE13=Larry Gatlin - O Holy Night
TTITLE14=Roy Clark - God Rest Ye Merry Gentlemen
TTITLE15=Boxcar Willie - Up On the Housetop
TTITLE16=Crystal Gayle - What Child Is This
TTITLE17=Loretta Lynn - Deck the Halls
EXTD=
EXTT0=
EXTT1=
EXTT2=
EXTT3=
EXTT4=
EXTT5=
EXTT6=
EXTT7=
EXTT8=
EXTT9=
EXTT10=
EXTT11=
EXTT12=
EXTT13=
EXTT14=
EXTT15=
EXTT16=
EXTT17=
PLAYORDER=
